<svg xmlns="http://www.w3.org/2000/svg" xmlns:xlink="http://www.w3.org/1999/xlink" width="200" zoomAndPan="magnify" viewBox="0 0 150 149.999998" height="200" preserveAspectRatio="xMidYMid meet" version="1.0"><defs><g/><clipPath id="d1cf59fcbd"><path d="M 0 77 L 144.75 77 L 144.75 117 L 0 117 Z M 0 77 " clip-rule="nonzero"/></clipPath><clipPath id="32d1d77f8c"><path d="M 34 130 L 106 130 L 106 150 L 34 150 Z M 34 130 " clip-rule="nonzero"/></clipPath><clipPath id="197d6d1e74"><path d="M 32.664062 139.199219 L 107.816406 129.6875 L 109.226562 140.847656 L 34.078125 150.359375 Z M 32.664062 139.199219 " clip-rule="nonzero"/></clipPath><clipPath id="b67e7ff8ab"><path d="M 32.664062 139.199219 L 107.816406 129.6875 L 109.226562 140.847656 L 34.078125 150.359375 Z M 32.664062 139.199219 " clip-rule="nonzero"/></clipPath><clipPath id="e7f65fbf80"><path d="M 36 141 L 51 141 L 51 147 L 36 147 Z M 36 141 " clip-rule="nonzero"/></clipPath><clipPath id="4fc3e1f7af"><path d="M 32.664062 139.199219 L 107.816406 129.6875 L 109.226562 140.847656 L 34.078125 150.359375 Z M 32.664062 139.199219 " clip-rule="nonzero"/></clipPath><clipPath id="dfc173ff8b"><path d="M 32.664062 139.199219 L 107.816406 129.6875 L 109.226562 140.847656 L 34.078125 150.359375 Z M 32.664062 139.199219 " clip-rule="nonzero"/></clipPath><clipPath id="069a976a54"><path d="M 101 132 L 108 132 L 108 141 L 101 141 Z M 101 132 " clip-rule="nonzero"/></clipPath><clipPath id="d22477645e"><path d="M 32.664062 139.199219 L 107.816406 129.6875 L 109.226562 140.847656 L 34.078125 150.359375 Z M 32.664062 139.199219 " clip-rule="nonzero"/></clipPath><clipPath id="e30ac771d7"><path d="M 32.664062 139.199219 L 107.816406 129.6875 L 109.226562 140.847656 L 34.078125 150.359375 Z M 32.664062 139.199219 " clip-rule="nonzero"/></clipPath></defs><rect x="-15" width="180" fill="#ffffff" y="-15" height="179.999997" fill-opacity="1"/><rect x="-15" width="180" fill="#ffffff" y="-15" height="179.999997" fill-opacity="1"/><path fill="#331f17" d="M 130.453125 57.089844 C 130.453125 88.59375 105.015625 114.136719 73.644531 114.136719 C 42.265625 114.136719 16.832031 88.59375 16.832031 57.089844 C 16.832031 25.585938 42.265625 0.046875 73.644531 0.046875 C 105.015625 0.046875 130.453125 25.585938 130.453125 57.089844 " fill-opacity="1" fill-rule="nonzero"/><path fill="#fbe7d6" d="M 126.980469 57.089844 C 126.980469 86.671875 103.101562 110.652344 73.644531 110.652344 C 44.183594 110.652344 20.300781 86.671875 20.300781 57.089844 C 20.300781 27.511719 44.183594 3.53125 73.644531 3.53125 C 103.101562 3.53125 126.980469 27.511719 126.980469 57.089844 " fill-opacity="1" fill-rule="nonzero"/><path fill="#341f17" d="M 76.636719 57.867188 C 76.636719 59.957031 74.949219 61.652344 72.867188 61.652344 C 70.789062 61.652344 69.101562 59.957031 69.101562 57.867188 C 69.101562 55.777344 70.789062 54.085938 72.867188 54.085938 C 74.949219 54.085938 76.636719 55.777344 76.636719 57.867188 " fill-opacity="1" fill-rule="nonzero"/><path fill="#5e9f31" d="M 74.078125 15.46875 C 95.292969 15.46875 112.640625 32.054688 113.988281 53.015625 L 121.179688 53.015625 C 119.324219 28.273438 98.757812 8.773438 73.644531 8.773438 C 48.527344 8.773438 27.960938 28.273438 26.105469 53.015625 L 34.167969 53.015625 C 35.511719 32.054688 52.859375 15.46875 74.078125 15.46875 " fill-opacity="1" fill-rule="nonzero"/><path fill="#d01f29" d="M 73.207031 97.84375 C 51.988281 97.84375 34.640625 81.257812 33.296875 60.292969 L 26.105469 60.292969 C 27.957031 85.035156 48.527344 104.539062 73.640625 104.539062 C 98.757812 104.539062 119.324219 85.035156 121.179688 60.292969 L 113.117188 60.292969 C 111.773438 81.257812 94.421875 97.84375 73.207031 97.84375 " fill-opacity="1" fill-rule="nonzero"/><path fill="#d01f29" d="M 110.117188 59.035156 L 79.101562 59.035156 L 79.101562 56.269531 L 110.117188 56.269531 L 110.117188 59.035156 " fill-opacity="1" fill-rule="nonzero"/><path fill="#5e9f31" d="M 66.636719 59.035156 L 35.617188 59.035156 L 35.617188 56.269531 L 66.636719 56.269531 L 66.636719 59.035156 " fill-opacity="1" fill-rule="nonzero"/><path fill="#f9a72b" d="M 45.03125 45.261719 C 45.03125 45.261719 43.046875 42.132812 44.953125 40.367188 C 46.863281 38.605469 76.542969 13.703125 82.574219 15.914062 C 88.601562 18.121094 100.164062 25.351562 102.507812 38.867188 C 104.851562 52.378906 45.03125 45.261719 45.03125 45.261719 " fill-opacity="1" fill-rule="nonzero"/><path fill="#341f17" d="M 102.492188 38.863281 C 100.144531 25.351562 88.585938 18.121094 82.558594 15.910156 C 81.066406 15.363281 78.128906 16.476562 74.523438 18.484375 C 74.542969 18.488281 91.34375 24.695312 94.496094 45.5625 C 99.777344 44.332031 103.078125 42.242188 102.492188 38.863281 " fill-opacity="1" fill-rule="nonzero"/><path fill="#341f17" d="M 44.867188 44.953125 C 44.867188 44.953125 79.601562 49.5625 102.574219 39.878906 L 101.726562 46.519531 C 101.726562 46.519531 78.253906 53.410156 44.289062 49.472656 L 44.867188 44.953125 " fill-opacity="1" fill-rule="nonzero"/><path fill="#f9a72b" d="M 44.6875 46.367188 L 46.234375 45.992188 L 47.640625 46.746094 L 50.714844 46.207031 L 55.085938 47.238281 L 57.394531 47.066406 L 59.367188 47.320312 L 62.15625 46.746094 C 62.15625 46.746094 64.417969 46.964844 64.621094 47.0625 C 64.820312 47.160156 67.101562 46.664062 67.101562 46.664062 L 68.015625 46.78125 L 70.476562 47.671875 C 70.476562 47.671875 73.699219 47.082031 73.910156 47.105469 C 74.121094 47.132812 75.597656 47.324219 75.597656 47.324219 L 77.730469 46.304688 L 78.644531 46.421875 L 80.34375 45.996094 C 80.34375 45.996094 81.300781 45.761719 81.539062 46.148438 C 81.773438 46.539062 84.03125 45.679688 84.03125 45.679688 L 85.507812 45.871094 L 86.546875 45 L 88.589844 45.261719 L 91.6875 43.9375 C 91.6875 43.9375 92.339844 44.449219 92.550781 44.476562 C 92.761719 44.503906 94.152344 44.253906 94.152344 44.253906 L 94.910156 43.917969 L 96.90625 42.8125 L 97.753906 42.921875 L 98.78125 42.695312 L 100.710938 42.152344 C 101.035156 41.835938 101.59375 41.40625 101.59375 41.40625 L 102.4375 40.9375 L 101.871094 45.390625 L 100.382812 45.84375 C 100.382812 45.84375 100.179688 45.746094 99.898438 45.710938 C 99.617188 45.671875 97.839844 46.164062 97.839844 46.164062 L 96.847656 46.648438 L 94.667969 46.367188 C 94.667969 46.367188 93.582031 46.476562 93.34375 46.664062 C 93.105469 46.847656 92.753906 46.800781 92.355469 47.109375 C 91.960938 47.417969 88.539062 47.335938 88.539062 47.335938 C 88.539062 47.335938 87.464844 47.414062 87.476562 47.558594 C 87.488281 47.703125 86.398438 47.851562 86.398438 47.851562 L 83.253906 48.953125 L 81.617188 48.886719 C 81.617188 48.886719 79.957031 48.460938 79.585938 48.554688 C 79.21875 48.652344 77.84375 49.335938 77.84375 49.335938 C 77.84375 49.335938 77.242188 49.546875 76.03125 49.535156 C 74.816406 49.523438 72.503906 49.152344 72.503906 49.152344 C 72.503906 49.152344 71.078125 49.113281 70.347656 49.234375 C 69.617188 49.355469 68.203125 49.246094 67.972656 49.359375 C 67.742188 49.472656 65.089844 48.988281 65.089844 48.988281 C 65.089844 48.988281 64.261719 48.738281 63.496094 49.144531 C 62.730469 49.546875 62.492188 49.730469 61.929688 49.660156 C 61.363281 49.585938 61.003906 49.613281 59.605469 49.359375 C 58.207031 49.109375 57.71875 48.472656 57.058594 48.601562 C 56.398438 48.734375 55.691406 49.214844 54.960938 49.339844 C 54.230469 49.460938 54.496094 49.0625 53.203125 49.113281 C 51.910156 49.160156 50.804688 48.855469 50.453125 48.820312 C 50.097656 48.785156 49.234375 48.828125 47.5625 48.5 L 44.390625 48.695312 L 44.6875 46.367188 " fill-opacity="1" fill-rule="nonzero"/><path fill="#fab69d" d="M 57 47.675781 C 56.984375 47.796875 57.191406 47.917969 57.464844 47.953125 C 57.734375 47.988281 57.96875 47.921875 57.984375 47.800781 C 58 47.683594 57.792969 47.558594 57.519531 47.523438 C 57.246094 47.488281 57.015625 47.554688 57 47.675781 " fill-opacity="1" fill-rule="nonzero"/><path fill="#fab69d" d="M 100.1875 44.023438 C 100.171875 44.140625 100.378906 44.261719 100.652344 44.300781 C 100.921875 44.335938 101.15625 44.269531 101.171875 44.148438 C 101.1875 44.03125 100.976562 43.910156 100.707031 43.875 C 100.433594 43.839844 100.199219 43.90625 100.1875 44.023438 " fill-opacity="1" fill-rule="nonzero"/><path fill="#fab69d" d="M 96.101562 44.648438 C 96.085938 44.765625 96.296875 44.886719 96.566406 44.921875 C 96.839844 44.957031 97.074219 44.890625 97.085938 44.773438 C 97.101562 44.65625 96.894531 44.535156 96.621094 44.5 C 96.347656 44.464844 96.117188 44.53125 96.101562 44.648438 " fill-opacity="1" fill-rule="nonzero"/><path fill="#fab69d" d="M 90.367188 45.703125 C 90.351562 45.820312 90.558594 45.945312 90.832031 45.980469 C 91.105469 46.015625 91.335938 45.949219 91.351562 45.832031 C 91.367188 45.714844 91.15625 45.589844 90.886719 45.558594 C 90.613281 45.523438 90.378906 45.589844 90.367188 45.703125 " fill-opacity="1" fill-rule="nonzero"/><path fill="#fab69d" d="M 85.972656 47.078125 C 85.957031 47.195312 86.164062 47.320312 86.4375 47.351562 C 86.710938 47.390625 86.941406 47.320312 86.957031 47.203125 C 86.972656 47.089844 86.765625 46.964844 86.492188 46.929688 C 86.21875 46.894531 85.988281 46.960938 85.972656 47.078125 " fill-opacity="1" fill-rule="nonzero"/><path fill="#fab69d" d="M 81.996094 47.429688 C 81.980469 47.546875 82.1875 47.667969 82.460938 47.703125 C 82.734375 47.738281 82.964844 47.671875 82.980469 47.554688 C 82.996094 47.4375 82.785156 47.316406 82.515625 47.28125 C 82.242188 47.246094 82.011719 47.3125 81.996094 47.429688 " fill-opacity="1" fill-rule="nonzero"/><path fill="#fab69d" d="M 77.132812 47.804688 C 77.117188 47.921875 77.324219 48.046875 77.597656 48.082031 C 77.871094 48.117188 78.101562 48.050781 78.117188 47.933594 C 78.132812 47.816406 77.925781 47.691406 77.652344 47.65625 C 77.378906 47.621094 77.148438 47.6875 77.132812 47.804688 " fill-opacity="1" fill-rule="nonzero"/><path fill="#fab69d" d="M 72.5 48.074219 C 72.484375 48.1875 72.691406 48.3125 72.964844 48.347656 C 73.234375 48.382812 73.46875 48.316406 73.484375 48.199219 C 73.5 48.082031 73.289062 47.960938 73.019531 47.925781 C 72.746094 47.886719 72.515625 47.953125 72.5 48.074219 " fill-opacity="1" fill-rule="nonzero"/><path fill="#fab69d" d="M 67.1875 48.035156 C 67.171875 48.152344 67.382812 48.277344 67.652344 48.3125 C 67.925781 48.34375 68.160156 48.277344 68.171875 48.164062 C 68.1875 48.046875 67.980469 47.921875 67.707031 47.886719 C 67.4375 47.851562 67.203125 47.917969 67.1875 48.035156 " fill-opacity="1" fill-rule="nonzero"/><path fill="#fab69d" d="M 61.699219 48.082031 C 61.6875 48.175781 61.898438 48.277344 62.171875 48.3125 C 62.445312 48.347656 62.671875 48.300781 62.6875 48.210938 C 62.695312 48.117188 62.484375 48.015625 62.214844 47.980469 C 61.941406 47.945312 61.710938 47.992188 61.699219 48.082031 " fill-opacity="1" fill-rule="nonzero"/><path fill="#fab69d" d="M 52.40625 48.074219 C 52.390625 48.191406 52.597656 48.3125 52.871094 48.347656 C 53.144531 48.382812 53.375 48.316406 53.390625 48.199219 C 53.40625 48.082031 53.199219 47.960938 52.925781 47.925781 C 52.652344 47.890625 52.421875 47.957031 52.40625 48.074219 " fill-opacity="1" fill-rule="nonzero"/><path fill="#fab69d" d="M 48.558594 47.578125 C 48.542969 47.695312 48.753906 47.820312 49.023438 47.855469 C 49.296875 47.890625 49.53125 47.824219 49.546875 47.707031 C 49.558594 47.589844 49.351562 47.464844 49.078125 47.429688 C 48.808594 47.394531 48.574219 47.460938 48.558594 47.578125 " fill-opacity="1" fill-rule="nonzero"/><path fill="#fab69d" d="M 45.367188 47.386719 C 45.351562 47.5 45.558594 47.625 45.832031 47.660156 C 46.105469 47.695312 46.335938 47.628906 46.351562 47.511719 C 46.367188 47.394531 46.160156 47.269531 45.886719 47.234375 C 45.617188 47.199219 45.382812 47.265625 45.367188 47.386719 " fill-opacity="1" fill-rule="nonzero"/><path fill="#341f17" d="M 94.039062 42.867188 C 94.039062 42.867188 94.097656 37.46875 97.472656 37.226562 C 100.851562 36.980469 102.527344 40.105469 102.527344 40.105469 L 94.039062 42.867188 " fill-opacity="1" fill-rule="nonzero"/><path fill="#341f17" d="M 92.144531 39.613281 C 90.433594 36.953125 90.109375 30.027344 74.484375 18.789062 C 74.484375 18.789062 72.449219 18.371094 71.746094 20.132812 C 71.046875 21.898438 69.894531 21.292969 68.777344 22.046875 C 67.65625 22.800781 65.707031 23.9375 65.726562 24.371094 C 65.726562 24.371094 65.371094 25.535156 63.480469 25.730469 C 61.59375 25.921875 60.976562 27.011719 60.925781 27.605469 C 60.875 28.199219 59.359375 28.773438 58.515625 29.417969 C 57.675781 30.058594 56.152344 30.542969 56.285156 31.132812 C 56.421875 31.71875 56.410156 32.9375 54.835938 32.953125 C 53.261719 32.964844 51.941406 34.019531 51.867188 34.351562 C 51.792969 34.683594 52.339844 36.078125 51.050781 35.910156 C 51.050781 35.910156 49.132812 36.082031 48.871094 37.058594 C 48.609375 38.039062 46.90625 38.324219 46.5 38.484375 C 46.101562 38.648438 45.5625 39.15625 45.449219 39.929688 C 45.335938 40.703125 45.6875 40.75 44.78125 41.136719 C 43.875 41.523438 43.601562 41.417969 43.722656 42.722656 C 43.722656 42.722656 42.539062 45.984375 43.613281 46.171875 C 44.6875 46.367188 46.238281 44.480469 46.238281 44.480469 C 46.238281 44.480469 46.722656 44.210938 49.898438 44.949219 C 53.070312 45.691406 61.09375 46.105469 62.546875 45.359375 C 64 44.613281 67.570312 48.015625 68.714844 48.019531 C 69.859375 48.023438 71.011719 45.15625 72.164062 45.089844 C 72.164062 45.089844 72.785156 46.386719 74.660156 46.269531 C 75.445312 46.222656 75.976562 46.316406 76.453125 46.410156 C 77.105469 46.539062 77.660156 46.671875 78.644531 46.421875 C 80.34375 45.996094 81.710938 44.234375 83.609375 45.050781 C 84.394531 45.390625 85.238281 45.195312 86.011719 45 C 87.105469 44.722656 88.0625 44.445312 88.535156 45.683594 C 89.335938 47.796875 92.125 43.460938 92.492188 43.25 C 92.492188 43.25 93.855469 42.277344 92.144531 39.613281 " fill-opacity="1" fill-rule="nonzero"/><path fill="#f9a72b" d="M 89.207031 38.78125 C 88.859375 41.507812 85.886719 43.371094 82.566406 42.941406 C 79.246094 42.515625 76.835938 39.960938 77.1875 37.234375 C 77.53125 34.507812 80.503906 32.644531 83.824219 33.070312 C 87.144531 33.496094 89.554688 36.054688 89.207031 38.78125 " fill-opacity="1" fill-rule="nonzero"/><path fill="#f9a72b" d="M 89.285156 38.171875 C 88.9375 40.894531 85.964844 42.761719 82.644531 42.335938 C 79.324219 41.90625 76.914062 39.351562 77.261719 36.625 C 77.609375 33.898438 80.582031 32.035156 83.902344 32.460938 C 87.222656 32.886719 89.632812 35.445312 89.285156 38.171875 " fill-opacity="1" fill-rule="nonzero"/><path fill="#f6c766" d="M 83.925781 34.085938 C 83.851562 34.085938 83.777344 34.082031 83.699219 34.070312 C 83.195312 34.007812 82.816406 33.75 82.851562 33.5 C 82.875 33.285156 83.191406 33.140625 83.589844 33.140625 C 83.660156 33.140625 83.738281 33.148438 83.816406 33.15625 C 84.316406 33.222656 84.695312 33.476562 84.664062 33.730469 C 84.636719 33.945312 84.324219 34.085938 83.925781 34.085938 " fill-opacity="1" fill-rule="nonzero"/><path fill="#f6c766" d="M 80.496094 35.03125 C 80.433594 35.03125 80.367188 35.03125 80.300781 35.023438 C 79.796875 34.964844 79.414062 34.714844 79.441406 34.460938 C 79.464844 34.242188 79.789062 34.09375 80.203125 34.09375 C 80.265625 34.09375 80.332031 34.097656 80.402344 34.105469 C 80.902344 34.160156 81.285156 34.410156 81.257812 34.664062 C 81.234375 34.882812 80.910156 35.03125 80.496094 35.03125 " fill-opacity="1" fill-rule="nonzero"/><path fill="#f6c766" d="M 79.34375 37.214844 C 79.269531 37.214844 79.195312 37.210938 79.117188 37.199219 C 78.617188 37.136719 78.234375 36.878906 78.269531 36.625 C 78.292969 36.414062 78.609375 36.269531 79.007812 36.269531 C 79.078125 36.269531 79.15625 36.277344 79.234375 36.285156 C 79.734375 36.351562 80.113281 36.605469 80.082031 36.859375 C 80.054688 37.074219 79.742188 37.214844 79.34375 37.214844 " fill-opacity="1" fill-rule="nonzero"/><path fill="#f6c766" d="M 86.964844 35.863281 C 86.894531 35.863281 86.816406 35.859375 86.738281 35.851562 C 86.238281 35.785156 85.859375 35.527344 85.890625 35.277344 C 85.917969 35.0625 86.230469 34.921875 86.628906 34.921875 C 86.703125 34.921875 86.777344 34.925781 86.855469 34.933594 C 87.355469 35 87.738281 35.257812 87.707031 35.507812 C 87.679688 35.722656 87.363281 35.863281 86.964844 35.863281 " fill-opacity="1" fill-rule="nonzero"/><path fill="#f6c766" d="M 87.828125 38.769531 C 87.753906 38.769531 87.679688 38.765625 87.601562 38.757812 C 87.101562 38.691406 86.71875 38.433594 86.75 38.183594 C 86.777344 37.96875 87.09375 37.828125 87.492188 37.828125 C 87.5625 37.828125 87.640625 37.832031 87.71875 37.84375 C 88.21875 37.90625 88.597656 38.164062 88.566406 38.414062 C 88.539062 38.628906 88.226562 38.769531 87.828125 38.769531 " fill-opacity="1" fill-rule="nonzero"/><path fill="#f6c766" d="M 85.707031 41.132812 C 85.636719 41.132812 85.558594 41.128906 85.484375 41.117188 C 84.980469 41.054688 84.601562 40.796875 84.632812 40.542969 C 84.660156 40.328125 84.972656 40.1875 85.371094 40.1875 C 85.445312 40.1875 85.523438 40.191406 85.597656 40.203125 C 86.101562 40.269531 86.480469 40.523438 86.449219 40.777344 C 86.421875 40.992188 86.109375 41.132812 85.707031 41.132812 " fill-opacity="1" fill-rule="nonzero"/><path fill="#f6c766" d="M 80.746094 40.492188 C 80.671875 40.492188 80.59375 40.488281 80.519531 40.480469 C 80.015625 40.414062 79.636719 40.15625 79.667969 39.90625 C 79.695312 39.691406 80.007812 39.550781 80.40625 39.550781 C 80.480469 39.550781 80.558594 39.554688 80.632812 39.566406 C 81.136719 39.628906 81.515625 39.886719 81.484375 40.140625 C 81.457031 40.351562 81.144531 40.492188 80.746094 40.492188 " fill-opacity="1" fill-rule="nonzero"/><path fill="#f6c766" d="M 83.515625 37.285156 C 83.445312 37.285156 83.367188 37.28125 83.289062 37.273438 C 82.789062 37.207031 82.410156 36.949219 82.441406 36.699219 C 82.46875 36.484375 82.78125 36.34375 83.179688 36.34375 C 83.253906 36.34375 83.328125 36.347656 83.40625 36.359375 C 83.90625 36.421875 84.289062 36.679688 84.253906 36.933594 C 84.230469 37.144531 83.914062 37.285156 83.515625 37.285156 " fill-opacity="1" fill-rule="nonzero"/><path fill="#f9a72b" d="M 58.875 40.492188 C 58.617188 42.5 56.429688 43.875 53.984375 43.558594 C 51.535156 43.246094 49.761719 41.363281 50.019531 39.355469 C 50.273438 37.347656 52.464844 35.972656 54.910156 36.289062 C 57.355469 36.601562 59.128906 38.484375 58.875 40.492188 " fill-opacity="1" fill-rule="nonzero"/><path fill="#f9a72b" d="M 58.929688 40.042969 C 58.675781 42.050781 56.484375 43.425781 54.039062 43.109375 C 51.59375 42.796875 49.820312 40.914062 50.074219 38.90625 C 50.332031 36.898438 52.523438 35.523438 54.964844 35.839844 C 57.414062 36.152344 59.1875 38.035156 58.929688 40.042969 " fill-opacity="1" fill-rule="nonzero"/><path fill="#f6c766" d="M 54.980469 37.035156 C 54.929688 37.035156 54.871094 37.03125 54.816406 37.023438 C 54.445312 36.976562 54.167969 36.789062 54.191406 36.601562 C 54.210938 36.445312 54.441406 36.339844 54.734375 36.339844 C 54.789062 36.339844 54.84375 36.34375 54.902344 36.351562 C 55.269531 36.398438 55.550781 36.589844 55.527344 36.773438 C 55.507812 36.929688 55.277344 37.035156 54.980469 37.035156 " fill-opacity="1" fill-rule="nonzero"/><path fill="#f6c766" d="M 52.457031 37.734375 C 52.410156 37.734375 52.363281 37.730469 52.3125 37.726562 C 51.941406 37.683594 51.660156 37.5 51.679688 37.3125 C 51.699219 37.152344 51.9375 37.042969 52.242188 37.042969 C 52.289062 37.042969 52.335938 37.042969 52.386719 37.050781 C 52.757812 37.089844 53.039062 37.277344 53.019531 37.460938 C 53 37.621094 52.761719 37.734375 52.457031 37.734375 " fill-opacity="1" fill-rule="nonzero"/><path fill="#f6c766" d="M 51.609375 39.339844 C 51.554688 39.339844 51.496094 39.335938 51.441406 39.328125 C 51.070312 39.28125 50.792969 39.09375 50.816406 38.90625 C 50.835938 38.75 51.066406 38.644531 51.359375 38.644531 C 51.414062 38.644531 51.46875 38.648438 51.527344 38.65625 C 51.894531 38.703125 52.175781 38.894531 52.152344 39.078125 C 52.132812 39.238281 51.902344 39.339844 51.609375 39.339844 " fill-opacity="1" fill-rule="nonzero"/><path fill="#f6c766" d="M 57.222656 38.34375 C 57.167969 38.34375 57.113281 38.34375 57.054688 38.335938 C 56.6875 38.285156 56.40625 38.097656 56.429688 37.910156 C 56.449219 37.753906 56.679688 37.648438 56.976562 37.648438 C 57.027344 37.648438 57.085938 37.652344 57.140625 37.660156 C 57.511719 37.707031 57.792969 37.898438 57.769531 38.082031 C 57.746094 38.242188 57.515625 38.34375 57.222656 38.34375 " fill-opacity="1" fill-rule="nonzero"/><path fill="#f6c766" d="M 57.855469 40.484375 C 57.804688 40.484375 57.746094 40.484375 57.691406 40.476562 C 57.320312 40.425781 57.042969 40.238281 57.066406 40.050781 C 57.085938 39.894531 57.316406 39.789062 57.609375 39.789062 C 57.664062 39.789062 57.71875 39.792969 57.777344 39.800781 C 58.144531 39.847656 58.425781 40.039062 58.402344 40.222656 C 58.378906 40.382812 58.148438 40.484375 57.855469 40.484375 " fill-opacity="1" fill-rule="nonzero"/><path fill="#f6c766" d="M 56.296875 42.226562 C 56.242188 42.226562 56.1875 42.222656 56.128906 42.214844 C 55.761719 42.167969 55.480469 41.976562 55.503906 41.792969 C 55.523438 41.632812 55.753906 41.53125 56.046875 41.53125 C 56.101562 41.53125 56.160156 41.53125 56.214844 41.539062 C 56.585938 41.589844 56.863281 41.777344 56.839844 41.964844 C 56.820312 42.121094 56.589844 42.226562 56.296875 42.226562 " fill-opacity="1" fill-rule="nonzero"/><path fill="#f6c766" d="M 52.640625 41.753906 C 52.585938 41.753906 52.53125 41.753906 52.472656 41.746094 C 52.105469 41.695312 51.824219 41.507812 51.847656 41.320312 C 51.867188 41.164062 52.097656 41.058594 52.390625 41.058594 C 52.445312 41.058594 52.5 41.0625 52.558594 41.070312 C 52.929688 41.117188 53.207031 41.308594 53.183594 41.492188 C 53.164062 41.652344 52.933594 41.753906 52.640625 41.753906 " fill-opacity="1" fill-rule="nonzero"/><path fill="#f6c766" d="M 54.683594 39.394531 C 54.628906 39.394531 54.574219 39.390625 54.515625 39.382812 C 54.148438 39.335938 53.867188 39.144531 53.890625 38.960938 C 53.910156 38.800781 54.140625 38.699219 54.433594 38.699219 C 54.488281 38.699219 54.542969 38.703125 54.601562 38.710938 C 54.96875 38.757812 55.25 38.945312 55.226562 39.132812 C 55.207031 39.289062 54.976562 39.394531 54.683594 39.394531 " fill-opacity="1" fill-rule="nonzero"/><path fill="#f9a72b" d="M 66.1875 36 C 65.988281 37.585938 64.261719 38.667969 62.332031 38.417969 C 60.402344 38.171875 59.003906 36.6875 59.207031 35.101562 C 59.40625 33.519531 61.132812 32.4375 63.0625 32.683594 C 64.992188 32.933594 66.390625 34.417969 66.1875 36 " fill-opacity="1" fill-rule="nonzero"/><path fill="#f9a72b" d="M 66.234375 35.648438 C 66.03125 37.230469 64.304688 38.3125 62.375 38.066406 C 60.449219 37.816406 59.050781 36.332031 59.25 34.75 C 59.453125 33.164062 61.179688 32.082031 63.109375 32.328125 C 65.035156 32.578125 66.4375 34.0625 66.234375 35.648438 " fill-opacity="1" fill-rule="nonzero"/><path fill="#f6c766" d="M 63.121094 33.273438 C 63.078125 33.273438 63.035156 33.269531 62.988281 33.265625 C 62.699219 33.226562 62.476562 33.078125 62.496094 32.933594 C 62.511719 32.808594 62.695312 32.726562 62.925781 32.726562 C 62.96875 32.726562 63.011719 32.726562 63.058594 32.734375 C 63.347656 32.769531 63.570312 32.921875 63.550781 33.066406 C 63.535156 33.191406 63.351562 33.273438 63.121094 33.273438 " fill-opacity="1" fill-rule="nonzero"/><path fill="#f6c766" d="M 61.128906 33.824219 C 61.09375 33.824219 61.054688 33.820312 61.015625 33.816406 C 60.722656 33.785156 60.5 33.640625 60.515625 33.492188 C 60.53125 33.367188 60.71875 33.277344 60.957031 33.277344 C 60.996094 33.277344 61.035156 33.28125 61.074219 33.285156 C 61.363281 33.316406 61.589844 33.464844 61.570312 33.609375 C 61.558594 33.738281 61.371094 33.824219 61.128906 33.824219 " fill-opacity="1" fill-rule="nonzero"/><path fill="#f6c766" d="M 60.457031 35.089844 C 60.417969 35.089844 60.371094 35.089844 60.328125 35.082031 C 60.035156 35.046875 59.816406 34.898438 59.835938 34.75 C 59.851562 34.625 60.03125 34.542969 60.261719 34.542969 C 60.304688 34.542969 60.351562 34.546875 60.394531 34.550781 C 60.6875 34.589844 60.90625 34.738281 60.886719 34.886719 C 60.871094 35.007812 60.691406 35.089844 60.457031 35.089844 " fill-opacity="1" fill-rule="nonzero"/><path fill="#f6c766" d="M 64.886719 34.308594 C 64.84375 34.308594 64.800781 34.304688 64.753906 34.296875 C 64.464844 34.261719 64.246094 34.113281 64.261719 33.964844 C 64.277344 33.839844 64.460938 33.757812 64.691406 33.757812 C 64.734375 33.757812 64.777344 33.761719 64.824219 33.765625 C 65.113281 33.804688 65.335938 33.953125 65.316406 34.101562 C 65.300781 34.226562 65.121094 34.308594 64.886719 34.308594 " fill-opacity="1" fill-rule="nonzero"/><path fill="#f6c766" d="M 65.386719 35.996094 C 65.34375 35.996094 65.300781 35.992188 65.257812 35.988281 C 64.964844 35.949219 64.746094 35.800781 64.761719 35.652344 C 64.777344 35.53125 64.960938 35.449219 65.191406 35.449219 C 65.234375 35.449219 65.277344 35.449219 65.324219 35.457031 C 65.613281 35.492188 65.835938 35.640625 65.816406 35.789062 C 65.800781 35.914062 65.621094 35.996094 65.386719 35.996094 " fill-opacity="1" fill-rule="nonzero"/><path fill="#f6c766" d="M 64.15625 37.367188 C 64.113281 37.367188 64.070312 37.363281 64.023438 37.359375 C 63.734375 37.320312 63.511719 37.171875 63.53125 37.023438 C 63.546875 36.902344 63.730469 36.820312 63.960938 36.820312 C 64.003906 36.820312 64.046875 36.820312 64.09375 36.828125 C 64.382812 36.863281 64.605469 37.015625 64.585938 37.160156 C 64.570312 37.285156 64.390625 37.367188 64.15625 37.367188 " fill-opacity="1" fill-rule="nonzero"/><path fill="#f6c766" d="M 61.273438 36.996094 C 61.230469 36.996094 61.1875 36.992188 61.140625 36.988281 C 60.851562 36.949219 60.628906 36.800781 60.648438 36.65625 C 60.664062 36.53125 60.847656 36.449219 61.078125 36.449219 C 61.121094 36.449219 61.164062 36.449219 61.210938 36.457031 C 61.5 36.492188 61.722656 36.644531 61.703125 36.789062 C 61.6875 36.914062 61.503906 36.996094 61.273438 36.996094 " fill-opacity="1" fill-rule="nonzero"/><path fill="#f6c766" d="M 62.882812 35.132812 C 62.839844 35.132812 62.796875 35.128906 62.75 35.125 C 62.460938 35.089844 62.238281 34.9375 62.257812 34.792969 C 62.273438 34.667969 62.457031 34.585938 62.6875 34.585938 C 62.730469 34.585938 62.773438 34.589844 62.820312 34.59375 C 63.109375 34.628906 63.332031 34.78125 63.3125 34.925781 C 63.296875 35.050781 63.117188 35.132812 62.882812 35.132812 " fill-opacity="1" fill-rule="nonzero"/><path fill="#f9a72b" d="M 67.910156 40.417969 C 66.996094 38.636719 64.421875 39.558594 63.792969 39.816406 L 63.550781 39.589844 L 63.402344 39.667969 L 63.65625 39.875 C 63.65625 39.875 64.097656 40.222656 64.59375 40.914062 C 63.769531 40.957031 61.503906 41.261719 62.488281 43.457031 C 63.464844 45.625 65.074219 43.792969 65.632812 43.042969 C 65.710938 43.304688 65.777344 43.578125 65.828125 43.867188 L 65.78125 43.929688 L 65.828125 44.242188 L 65.882812 44.214844 C 65.882812 44.214844 68.957031 42.457031 67.910156 40.417969 " fill-opacity="1" fill-rule="nonzero"/><path fill="#f9a72b" d="M 65.78125 43.929688 C 65.78125 43.929688 68.855469 42.171875 67.808594 40.132812 C 66.761719 38.097656 63.550781 39.589844 63.550781 39.589844 C 63.550781 39.589844 63.992188 39.933594 64.492188 40.628906 C 63.664062 40.667969 61.402344 40.976562 62.386719 43.171875 C 63.363281 45.339844 64.96875 43.507812 65.53125 42.757812 C 65.636719 43.117188 65.722656 43.507812 65.78125 43.929688 " fill-opacity="1" fill-rule="nonzero"/><path fill="#f9a72b" d="M 64.96875 40.289062 C 64.96875 40.289062 65.359375 41.277344 66.558594 40.417969 L 64.96875 40.289062 " fill-opacity="1" fill-rule="nonzero"/><path fill="#f9a72b" d="M 66.128906 42.542969 C 66.128906 42.542969 65.554688 41.652344 66.945312 41.171875 L 66.128906 42.542969 " fill-opacity="1" fill-rule="nonzero"/><path fill="#f9a72b" d="M 79.203125 30.429688 C 78.949219 32.417969 76.78125 33.777344 74.359375 33.464844 C 71.941406 33.15625 70.183594 31.289062 70.4375 29.300781 C 70.691406 27.3125 72.859375 25.953125 75.277344 26.265625 C 77.699219 26.578125 79.457031 28.441406 79.203125 30.429688 " fill-opacity="1" fill-rule="nonzero"/><path fill="#f9a72b" d="M 79.261719 29.984375 C 79.007812 31.972656 76.839844 33.332031 74.417969 33.019531 C 71.996094 32.710938 70.238281 30.84375 70.492188 28.859375 C 70.746094 26.867188 72.914062 25.507812 75.335938 25.820312 C 77.757812 26.132812 79.515625 27.996094 79.261719 29.984375 " fill-opacity="1" fill-rule="nonzero"/><path fill="#f6c766" d="M 75.351562 27.007812 C 75.296875 27.007812 75.242188 27.003906 75.1875 26.996094 C 74.820312 26.949219 74.542969 26.761719 74.566406 26.578125 C 74.585938 26.421875 74.816406 26.316406 75.105469 26.316406 C 75.160156 26.316406 75.214844 26.320312 75.269531 26.328125 C 75.636719 26.375 75.914062 26.5625 75.890625 26.746094 C 75.871094 26.902344 75.640625 27.007812 75.351562 27.007812 " fill-opacity="1" fill-rule="nonzero"/><path fill="#f6c766" d="M 72.851562 27.695312 C 72.804688 27.695312 72.757812 27.695312 72.707031 27.6875 C 72.339844 27.648438 72.0625 27.464844 72.082031 27.28125 C 72.097656 27.121094 72.335938 27.011719 72.636719 27.011719 C 72.683594 27.011719 72.730469 27.015625 72.78125 27.019531 C 73.148438 27.0625 73.429688 27.242188 73.40625 27.429688 C 73.390625 27.589844 73.152344 27.695312 72.851562 27.695312 " fill-opacity="1" fill-rule="nonzero"/><path fill="#f6c766" d="M 72.007812 29.289062 C 71.957031 29.289062 71.902344 29.285156 71.84375 29.277344 C 71.480469 29.230469 71.199219 29.042969 71.226562 28.859375 C 71.246094 28.703125 71.472656 28.597656 71.765625 28.597656 C 71.816406 28.597656 71.871094 28.601562 71.929688 28.609375 C 72.292969 28.65625 72.570312 28.84375 72.546875 29.027344 C 72.527344 29.183594 72.300781 29.289062 72.007812 29.289062 " fill-opacity="1" fill-rule="nonzero"/><path fill="#f6c766" d="M 77.570312 28.300781 C 77.515625 28.300781 77.460938 28.300781 77.402344 28.292969 C 77.039062 28.246094 76.761719 28.058594 76.785156 27.875 C 76.804688 27.71875 77.035156 27.613281 77.324219 27.613281 C 77.375 27.613281 77.433594 27.617188 77.488281 27.625 C 77.855469 27.671875 78.132812 27.859375 78.109375 28.042969 C 78.089844 28.199219 77.859375 28.300781 77.570312 28.300781 " fill-opacity="1" fill-rule="nonzero"/><path fill="#f6c766" d="M 78.195312 30.421875 C 78.144531 30.421875 78.089844 30.417969 78.03125 30.410156 C 77.667969 30.363281 77.390625 30.179688 77.414062 29.992188 C 77.433594 29.835938 77.660156 29.734375 77.953125 29.734375 C 78.003906 29.734375 78.0625 29.738281 78.117188 29.746094 C 78.484375 29.792969 78.761719 29.980469 78.738281 30.164062 C 78.714844 30.320312 78.488281 30.421875 78.195312 30.421875 " fill-opacity="1" fill-rule="nonzero"/><path fill="#f6c766" d="M 76.652344 32.144531 C 76.597656 32.144531 76.542969 32.140625 76.488281 32.132812 C 76.121094 32.085938 75.84375 31.898438 75.867188 31.714844 C 75.886719 31.558594 76.117188 31.457031 76.40625 31.457031 C 76.460938 31.457031 76.515625 31.460938 76.574219 31.464844 C 76.9375 31.515625 77.214844 31.703125 77.191406 31.886719 C 77.171875 32.039062 76.945312 32.144531 76.652344 32.144531 " fill-opacity="1" fill-rule="nonzero"/><path fill="#f6c766" d="M 73.03125 31.679688 C 72.976562 31.679688 72.921875 31.675781 72.867188 31.667969 C 72.5 31.621094 72.222656 31.433594 72.246094 31.25 C 72.265625 31.09375 72.496094 30.992188 72.785156 30.992188 C 72.839844 30.992188 72.894531 30.992188 72.953125 31 C 73.316406 31.046875 73.59375 31.234375 73.570312 31.421875 C 73.550781 31.574219 73.324219 31.679688 73.03125 31.679688 " fill-opacity="1" fill-rule="nonzero"/><path fill="#f6c766" d="M 75.054688 29.339844 C 75 29.339844 74.945312 29.335938 74.886719 29.328125 C 74.523438 29.28125 74.246094 29.097656 74.269531 28.910156 C 74.289062 28.753906 74.519531 28.652344 74.808594 28.652344 C 74.863281 28.652344 74.917969 28.65625 74.972656 28.664062 C 75.339844 28.710938 75.617188 28.898438 75.59375 29.082031 C 75.574219 29.234375 75.34375 29.339844 75.054688 29.339844 " fill-opacity="1" fill-rule="nonzero"/><path fill="#f9a72b" d="M 74.898438 21.679688 C 73.925781 20.710938 72.441406 21.863281 72.089844 22.167969 L 71.882812 22.070312 L 71.800781 22.152344 L 72.011719 22.234375 C 72.011719 22.234375 72.371094 22.367188 72.839844 22.710938 C 72.3125 22.914062 70.902344 23.597656 72.007812 24.816406 C 73.105469 26.023438 73.765625 24.484375 73.96875 23.878906 C 74.074219 24.03125 74.175781 24.195312 74.273438 24.371094 L 74.253906 24.421875 L 74.351562 24.617188 L 74.382812 24.585938 C 74.382812 24.585938 76.011719 22.785156 74.898438 21.679688 " fill-opacity="1" fill-rule="nonzero"/><path fill="#f9a72b" d="M 74.253906 24.421875 C 74.253906 24.421875 75.886719 22.621094 74.773438 21.515625 C 73.660156 20.410156 71.882812 22.070312 71.882812 22.070312 C 71.882812 22.070312 72.242188 22.199219 72.714844 22.546875 C 72.183594 22.75 70.773438 23.433594 71.882812 24.652344 C 72.976562 25.859375 73.636719 24.320312 73.84375 23.714844 C 73.988281 23.925781 74.128906 24.160156 74.253906 24.421875 " fill-opacity="1" fill-rule="nonzero"/><path fill="#f9a72b" d="M 72.957031 22.222656 C 72.957031 22.222656 73.417969 22.785156 74.019531 21.96875 L 72.957031 22.222656 " fill-opacity="1" fill-rule="nonzero"/><path fill="#f9a72b" d="M 74.1875 23.445312 C 74.1875 23.445312 73.625 22.988281 74.429688 22.375 L 74.1875 23.445312 " fill-opacity="1" fill-rule="nonzero"/><path fill="#f9a72b" d="M 62.628906 27.785156 C 61.859375 29.636719 64.214844 31.019531 64.820312 31.335938 L 64.800781 31.667969 L 64.957031 31.730469 L 64.953125 31.402344 C 64.953125 31.402344 64.929688 30.84375 65.140625 30.015625 C 65.703125 30.621094 67.394531 32.164062 68.433594 29.996094 C 69.457031 27.847656 67.027344 27.792969 66.09375 27.84375 C 66.242188 27.621094 66.410156 27.390625 66.597656 27.164062 L 66.675781 27.164062 L 66.882812 26.921875 L 66.824219 26.898438 C 66.824219 26.898438 63.507812 25.667969 62.628906 27.785156 " fill-opacity="1" fill-rule="nonzero"/><path fill="#f9a72b" d="M 66.675781 27.164062 C 66.675781 27.164062 63.355469 25.933594 62.476562 28.046875 C 61.597656 30.164062 64.800781 31.667969 64.800781 31.667969 C 64.800781 31.667969 64.78125 31.105469 64.988281 30.277344 C 65.550781 30.886719 67.242188 32.425781 68.28125 30.257812 C 69.308594 28.113281 66.875 28.054688 65.941406 28.109375 C 66.148438 27.792969 66.390625 27.476562 66.675781 27.164062 " fill-opacity="1" fill-rule="nonzero"/><path fill="#f9a72b" d="M 64.421875 30.128906 C 64.421875 30.128906 64.921875 29.191406 63.496094 28.824219 L 64.421875 30.128906 " fill-opacity="1" fill-rule="nonzero"/><path fill="#f9a72b" d="M 65.394531 27.785156 C 65.394531 27.785156 65.085938 28.800781 63.824219 28.042969 L 65.394531 27.785156 " fill-opacity="1" fill-rule="nonzero"/><path fill="#f9a72b" d="M 76.367188 40.15625 C 76.550781 38.15625 73.886719 37.546875 73.21875 37.425781 L 73.136719 37.105469 L 72.96875 37.089844 L 73.070312 37.402344 C 73.070312 37.402344 73.257812 37.929688 73.304688 38.78125 C 72.585938 38.371094 70.515625 37.410156 70.167969 39.789062 C 69.828125 42.148438 72.167969 41.46875 73.039062 41.140625 C 72.96875 41.398438 72.875 41.664062 72.765625 41.9375 L 72.691406 41.964844 L 72.5625 42.253906 L 72.625 42.261719 C 72.625 42.261719 76.160156 42.4375 76.367188 40.15625 " fill-opacity="1" fill-rule="nonzero"/><path fill="#f9a72b" d="M 72.691406 41.964844 C 72.691406 41.964844 76.226562 42.140625 76.433594 39.859375 C 76.640625 37.574219 73.136719 37.105469 73.136719 37.105469 C 73.136719 37.105469 73.324219 37.632812 73.371094 38.484375 C 72.652344 38.074219 70.582031 37.113281 70.238281 39.492188 C 69.894531 41.851562 72.234375 41.171875 73.105469 40.84375 C 73.003906 41.203125 72.871094 41.578125 72.691406 41.964844 " fill-opacity="1" fill-rule="nonzero"/><path fill="#f9a72b" d="M 73.957031 38.457031 C 73.957031 38.457031 73.757812 39.5 75.226562 39.425781 L 73.957031 38.457031 " fill-opacity="1" fill-rule="nonzero"/><path fill="#f9a72b" d="M 73.726562 40.984375 C 73.726562 40.984375 73.71875 39.921875 75.148438 40.265625 L 73.726562 40.984375 " fill-opacity="1" fill-rule="nonzero"/><g clip-path="url(#d1cf59fcbd)"><path fill="#341f17" d="M 25.691406 112.359375 L 119.289062 112.359375 L 119.289062 108.128906 L 137.886719 108.128906 L 133.738281 97.699219 L 138.105469 86.171875 L 119.289062 86.171875 L 119.289062 82.097656 L 25.691406 82.097656 L 25.691406 86.171875 L 6.636719 86.171875 L 11 97.699219 L 6.855469 108.128906 L 25.691406 108.128906 Z M 123.871094 116.960938 L 21.109375 116.960938 L 21.109375 112.730469 L 0.0859375 112.730469 L 6.082031 97.660156 L -0.0078125 81.570312 L 21.109375 81.570312 L 21.109375 77.496094 L 123.871094 77.496094 L 123.871094 81.570312 L 144.75 81.570312 L 138.65625 97.660156 L 144.652344 112.730469 L 123.871094 112.730469 L 123.871094 116.960938 " fill-opacity="1" fill-rule="nonzero"/></g><path fill="#d01f29" d="M 120.507812 83.871094 L 120.507812 110.429688 L 141.269531 110.429688 L 136.199219 97.679688 L 141.425781 83.871094 L 120.507812 83.871094 " fill-opacity="1" fill-rule="nonzero"/><path fill="#5e9f31" d="M 24.230469 83.871094 L 24.230469 110.429688 L 3.46875 110.429688 L 8.542969 97.679688 L 3.3125 83.871094 L 24.230469 83.871094 " fill-opacity="1" fill-rule="nonzero"/><path fill="#fbe7d6" d="M 121.582031 114.660156 L 23.398438 114.660156 L 23.398438 79.796875 L 121.582031 79.796875 L 121.582031 114.660156 " fill-opacity="1" fill-rule="nonzero"/><path fill="#5e9f31" d="M 49.960938 65.566406 L 50.996094 68.765625 L 54.34375 68.765625 L 51.636719 70.742188 L 52.671875 73.941406 L 49.960938 71.964844 L 47.25 73.941406 L 48.285156 70.742188 L 45.574219 68.765625 L 48.925781 68.765625 L 49.960938 65.566406 " fill-opacity="1" fill-rule="nonzero"/><path fill="#5e9f31" d="M 62.160156 65.566406 L 63.195312 68.765625 L 66.546875 68.765625 L 63.835938 70.742188 L 64.871094 73.941406 L 62.160156 71.964844 L 59.453125 73.941406 L 60.488281 70.742188 L 57.777344 68.765625 L 61.125 68.765625 L 62.160156 65.566406 " fill-opacity="1" fill-rule="nonzero"/><path fill="#d01f29" d="M 85.171875 65.566406 L 86.207031 68.765625 L 89.554688 68.765625 L 86.847656 70.742188 L 87.882812 73.941406 L 85.171875 71.964844 L 82.460938 73.941406 L 83.496094 70.742188 L 80.785156 68.765625 L 84.136719 68.765625 L 85.171875 65.566406 " fill-opacity="1" fill-rule="nonzero"/><path fill="#d01f29" d="M 97.007812 65.566406 L 98.042969 68.765625 L 101.394531 68.765625 L 98.683594 70.742188 L 99.71875 73.941406 L 97.007812 71.964844 L 94.296875 73.941406 L 95.332031 70.742188 L 92.625 68.765625 L 95.972656 68.765625 L 97.007812 65.566406 " fill-opacity="1" fill-rule="nonzero"/><g clip-path="url(#32d1d77f8c)"><g clip-path="url(#197d6d1e74)"><g clip-path="url(#b67e7ff8ab)"><path fill="#457431" d="M 34.859375 149.699219 C 39.011719 146.839844 44.128906 145.65625 49.039062 144.910156 C 54.324219 144.101562 59.65625 143.78125 64.992188 143.597656 C 70.390625 143.421875 75.785156 143.367188 81.183594 143.066406 C 83.867188 142.910156 86.554688 142.679688 89.230469 142.355469 C 91.742188 142.054688 94.28125 141.746094 96.75 141.128906 C 99.234375 140.503906 101.667969 139.476562 103.382812 137.492188 C 104.882812 135.753906 105.8125 133.269531 105.050781 131.019531 C 104.734375 130.078125 103.25 130.496094 103.371094 131.460938 C 103.648438 133.515625 103.066406 135.351562 101.644531 136.855469 C 100.046875 138.546875 97.726562 139.359375 95.539062 139.914062 C 90.566406 141.140625 85.402344 141.597656 80.296875 141.890625 C 69.929688 142.464844 59.472656 142.085938 49.199219 143.753906 C 43.960938 144.585938 38.71875 145.863281 34.492188 149.222656 C 34.183594 149.460938 34.535156 149.925781 34.859375 149.699219 Z M 34.859375 149.699219 " fill-opacity="1" fill-rule="nonzero"/></g></g></g><g clip-path="url(#e7f65fbf80)"><g clip-path="url(#4fc3e1f7af)"><g clip-path="url(#dfc173ff8b)"><path fill="#457431" d="M 36.429688 146.09375 C 40.722656 143.875 45.328125 142.894531 50.085938 142.261719 C 50.339844 142.226562 50.375 141.777344 50.085938 141.785156 C 45.234375 141.675781 40.421875 143.4375 36.296875 145.910156 C 36.214844 145.964844 36.3125 146.152344 36.429688 146.09375 Z M 36.429688 146.09375 " fill-opacity="1" fill-rule="nonzero"/></g></g></g><g clip-path="url(#069a976a54)"><g clip-path="url(#d22477645e)"><g clip-path="url(#e30ac771d7)"><path fill="#457431" d="M 101.964844 140.480469 C 103.671875 140.019531 105.167969 138.988281 106.21875 137.578125 C 106.757812 136.867188 107.195312 136.074219 107.457031 135.226562 C 107.679688 134.554688 108.09375 133.351562 107.558594 132.757812 C 107.308594 132.484375 106.941406 132.484375 106.699219 132.757812 C 106.242188 133.261719 106.441406 134.25 106.3125 134.910156 C 106.160156 135.667969 105.898438 136.390625 105.539062 137.066406 C 104.730469 138.535156 103.449219 139.695312 101.902344 140.335938 C 101.796875 140.367188 101.863281 140.511719 101.964844 140.480469 Z M 101.964844 140.480469 " fill-opacity="1" fill-rule="nonzero"/></g></g></g><g fill="#a4240e" fill-opacity="1"><g transform="translate(44.792431, 103.270837)"><g><path d="M 17.304688 -14.460938 L 15.058594 -14.460938 C 14.925781 -14.460938 14.792969 -14.390625 14.683594 -14.28125 C 14.570312 -14.171875 14.527344 -14.058594 14.546875 -13.949219 L 14.613281 -13.28125 L 14.613281 -13.191406 L 12.769531 -6.296875 C 12.8125 -6.472656 12.8125 -6.519531 12.789062 -6.382812 C 12.746094 -6.25 12.703125 -6.074219 12.636719 -5.851562 C 12.570312 -5.605469 12.5 -5.359375 12.457031 -5.136719 C 12.390625 -4.917969 12.367188 -4.78125 12.367188 -4.78125 C 12.324219 -4.695312 12.277344 -4.671875 12.191406 -4.671875 C 12.101562 -4.671875 12.035156 -4.695312 12.011719 -4.78125 L 9.789062 -13.167969 C 9.765625 -13.167969 9.765625 -13.214844 9.765625 -13.28125 L 9.832031 -13.949219 C 9.832031 -14.058594 9.789062 -14.171875 9.699219 -14.28125 C 9.585938 -14.390625 9.476562 -14.460938 9.34375 -14.460938 L 7.296875 -14.460938 C 7.097656 -14.460938 7.007812 -14.347656 7.007812 -14.171875 C 7.007812 -14.082031 7.03125 -13.992188 7.074219 -13.949219 L 7.496094 -13.28125 C 7.519531 -13.234375 7.542969 -13.214844 7.542969 -13.167969 C 7.628906 -12.8125 7.695312 -12.570312 7.761719 -12.433594 C 7.832031 -12.277344 7.875 -12.125 7.875 -11.945312 C 7.875 -11.8125 7.832031 -11.613281 7.785156 -11.390625 C 7.742188 -11.167969 7.652344 -10.832031 7.542969 -10.410156 C 7.429688 -9.988281 7.273438 -9.433594 7.097656 -8.765625 C 6.894531 -8.074219 6.652344 -7.207031 6.382812 -6.160156 L 6.449219 -6.449219 L 6.339844 -6.007812 C 6.339844 -6.007812 6.363281 -6.027344 6.363281 -6.050781 L 6.296875 -5.851562 C 6.296875 -5.804688 6.273438 -5.761719 6.273438 -5.761719 L 6.273438 -5.738281 L 6.027344 -4.828125 C 5.984375 -4.738281 5.9375 -4.695312 5.851562 -4.695312 C 5.738281 -4.695312 5.671875 -4.738281 5.671875 -4.828125 L 3.449219 -13.191406 C 3.425781 -13.214844 3.425781 -13.257812 3.425781 -13.300781 L 3.492188 -13.96875 C 3.492188 -14.082031 3.449219 -14.191406 3.335938 -14.304688 C 3.226562 -14.414062 3.113281 -14.480469 3.003906 -14.480469 L 0.734375 -14.480469 C 0.535156 -14.480469 0.445312 -14.371094 0.445312 -14.191406 C 0.445312 -14.101562 0.46875 -14.015625 0.511719 -13.96875 L 0.933594 -13.300781 C 0.957031 -13.257812 0.980469 -13.234375 0.980469 -13.191406 C 1.222656 -12.257812 1.492188 -11.277344 1.757812 -10.253906 C 2.023438 -9.210938 2.3125 -8.164062 2.601562 -7.140625 C 2.871094 -6.117188 3.136719 -5.117188 3.402344 -4.160156 C 3.648438 -3.203125 3.871094 -2.335938 4.09375 -1.578125 C 4.117188 -1.445312 4.136719 -1.355469 4.136719 -1.289062 C 4.136719 -1.132812 4.09375 -0.957031 4.027344 -0.777344 L 3.914062 -0.535156 C 3.847656 -0.402344 3.871094 -0.289062 3.960938 -0.179688 C 4.046875 -0.0664062 4.183594 -0.0234375 4.359375 -0.0234375 L 7.117188 -0.0234375 C 7.25 -0.0234375 7.363281 -0.0429688 7.453125 -0.132812 C 7.542969 -0.199219 7.585938 -0.289062 7.585938 -0.402344 C 7.585938 -0.445312 7.5625 -0.488281 7.5625 -0.535156 L 7.453125 -0.777344 C 7.363281 -0.957031 7.339844 -1.132812 7.339844 -1.289062 C 7.339844 -1.355469 7.339844 -1.445312 7.386719 -1.578125 L 8.851562 -7.050781 C 8.851562 -7.140625 8.921875 -7.183594 9.03125 -7.183594 C 9.097656 -7.183594 9.144531 -7.140625 9.1875 -7.050781 C 9.453125 -6.027344 9.722656 -5.027344 9.964844 -4.09375 C 10.210938 -3.160156 10.433594 -2.3125 10.65625 -1.558594 C 10.675781 -1.421875 10.699219 -1.335938 10.699219 -1.269531 C 10.699219 -1.113281 10.65625 -0.933594 10.589844 -0.757812 L 10.476562 -0.511719 C 10.410156 -0.378906 10.433594 -0.265625 10.523438 -0.15625 C 10.609375 -0.0429688 10.746094 0 10.921875 0 L 13.679688 0 C 13.8125 0 13.925781 -0.0234375 14.015625 -0.109375 C 14.101562 -0.179688 14.148438 -0.265625 14.148438 -0.378906 C 14.148438 -0.421875 14.125 -0.46875 14.125 -0.511719 L 14.015625 -0.757812 C 13.925781 -0.933594 13.902344 -1.113281 13.902344 -1.269531 C 13.902344 -1.335938 13.902344 -1.421875 13.949219 -1.558594 L 17.0625 -13.167969 C 17.0625 -13.167969 17.0625 -13.214844 17.105469 -13.28125 L 17.527344 -13.949219 C 17.574219 -13.992188 17.597656 -14.082031 17.597656 -14.171875 C 17.597656 -14.347656 17.484375 -14.460938 17.304688 -14.460938 Z M 6.449219 -6.472656 L 6.449219 -6.449219 Z M 6.316406 -5.917969 L 6.339844 -6.007812 C 6.316406 -5.960938 6.316406 -5.9375 6.316406 -5.917969 Z M 6.316406 -5.917969 C 6.316406 -5.894531 6.296875 -5.871094 6.296875 -5.871094 C 6.296875 -5.871094 6.296875 -5.851562 6.296875 -5.851562 L 6.273438 -5.761719 C 6.273438 -5.785156 6.273438 -5.804688 6.273438 -5.828125 C 6.273438 -5.851562 6.296875 -5.871094 6.316406 -5.917969 Z M 6.273438 -5.738281 C 6.25 -5.695312 6.25 -5.671875 6.25 -5.671875 C 6.25 -5.648438 6.230469 -5.628906 6.230469 -5.605469 C 6.230469 -5.628906 6.230469 -5.671875 6.273438 -5.738281 Z M 6.273438 -5.738281 "/></g></g></g><g fill="#a4240e" fill-opacity="1"><g transform="translate(62.830801, 103.270837)"><g><path d="M 1.492188 0 L 3.535156 0 C 3.625 0 3.714844 -0.0234375 3.804688 -0.109375 C 3.871094 -0.179688 3.914062 -0.265625 3.914062 -0.402344 C 3.914062 -0.445312 3.894531 -0.46875 3.894531 -0.511719 L 3.648438 -1.179688 C 3.625 -1.203125 3.625 -1.246094 3.625 -1.289062 L 3.625 -13.167969 C 3.625 -13.214844 3.625 -13.234375 3.648438 -13.28125 L 3.894531 -13.949219 C 3.9375 -14.058594 3.914062 -14.171875 3.824219 -14.28125 C 3.738281 -14.390625 3.648438 -14.460938 3.535156 -14.460938 L 1.492188 -14.460938 C 1.355469 -14.460938 1.269531 -14.414062 1.203125 -14.347656 C 1.132812 -14.257812 1.113281 -14.171875 1.113281 -14.082031 C 1.113281 -14.015625 1.113281 -13.96875 1.132812 -13.949219 L 1.378906 -13.28125 C 1.378906 -13.234375 1.378906 -13.214844 1.378906 -13.214844 C 1.378906 -13.191406 1.402344 -13.167969 1.402344 -13.167969 L 1.402344 -1.289062 C 1.402344 -1.269531 1.378906 -1.246094 1.378906 -1.246094 C 1.378906 -1.222656 1.378906 -1.203125 1.378906 -1.179688 L 1.132812 -0.511719 C 1.089844 -0.378906 1.089844 -0.265625 1.179688 -0.15625 C 1.246094 -0.0429688 1.355469 0 1.492188 0 Z M 1.492188 0 "/></g></g></g><g fill="#a4240e" fill-opacity="1"><g transform="translate(67.857529, 103.270837)"><g><path d="M 1.402344 -0.0234375 L 1.402344 0 L 8.429688 0 C 8.519531 0 8.609375 -0.0234375 8.699219 -0.109375 C 8.765625 -0.179688 8.808594 -0.265625 8.808594 -0.378906 L 8.808594 -2.15625 C 8.808594 -2.378906 8.675781 -2.515625 8.453125 -2.515625 C 8.386719 -2.515625 8.34375 -2.492188 8.320312 -2.492188 L 7.628906 -2.246094 C 7.585938 -2.222656 7.542969 -2.222656 7.496094 -2.222656 L 4.003906 -2.222656 C 3.871094 -2.222656 3.78125 -2.246094 3.714844 -2.335938 C 3.648438 -2.402344 3.625 -2.492188 3.625 -2.601562 L 3.625 -13.167969 C 3.625 -13.214844 3.625 -13.234375 3.648438 -13.28125 L 3.894531 -13.949219 C 3.9375 -14.058594 3.914062 -14.171875 3.824219 -14.28125 C 3.738281 -14.390625 3.648438 -14.460938 3.535156 -14.460938 L 1.492188 -14.460938 C 1.355469 -14.460938 1.269531 -14.414062 1.203125 -14.347656 C 1.132812 -14.257812 1.113281 -14.171875 1.113281 -14.082031 C 1.113281 -14.015625 1.113281 -13.96875 1.132812 -13.949219 L 1.378906 -13.28125 C 1.378906 -13.234375 1.378906 -13.214844 1.378906 -13.214844 C 1.378906 -13.191406 1.402344 -13.167969 1.402344 -13.167969 L 1.402344 -1.289062 C 1.402344 -1.269531 1.378906 -1.246094 1.378906 -1.246094 C 1.378906 -1.222656 1.378906 -1.203125 1.378906 -1.179688 L 1.132812 -0.511719 C 1.089844 -0.378906 1.113281 -0.289062 1.15625 -0.199219 C 1.203125 -0.109375 1.269531 -0.0429688 1.402344 -0.0234375 Z M 1.402344 -0.0234375 "/></g></g></g><g fill="#a4240e" fill-opacity="1"><g transform="translate(77.332673, 103.270837)"><g><path d="M 1.402344 -0.0234375 L 1.402344 0 L 8.429688 0 C 8.519531 0 8.609375 -0.0234375 8.699219 -0.109375 C 8.765625 -0.179688 8.808594 -0.265625 8.808594 -0.378906 L 8.808594 -2.15625 C 8.808594 -2.378906 8.675781 -2.515625 8.453125 -2.515625 C 8.386719 -2.515625 8.34375 -2.492188 8.320312 -2.492188 L 7.628906 -2.246094 C 7.585938 -2.222656 7.542969 -2.222656 7.496094 -2.222656 L 4.003906 -2.222656 C 3.871094 -2.222656 3.78125 -2.246094 3.714844 -2.335938 C 3.648438 -2.402344 3.625 -2.492188 3.625 -2.601562 L 3.625 -13.167969 C 3.625 -13.214844 3.625 -13.234375 3.648438 -13.28125 L 3.894531 -13.949219 C 3.9375 -14.058594 3.914062 -14.171875 3.824219 -14.28125 C 3.738281 -14.390625 3.648438 -14.460938 3.535156 -14.460938 L 1.492188 -14.460938 C 1.355469 -14.460938 1.269531 -14.414062 1.203125 -14.347656 C 1.132812 -14.257812 1.113281 -14.171875 1.113281 -14.082031 C 1.113281 -14.015625 1.113281 -13.96875 1.132812 -13.949219 L 1.378906 -13.28125 C 1.378906 -13.234375 1.378906 -13.214844 1.378906 -13.214844 C 1.378906 -13.191406 1.402344 -13.167969 1.402344 -13.167969 L 1.402344 -1.289062 C 1.402344 -1.269531 1.378906 -1.246094 1.378906 -1.246094 C 1.378906 -1.222656 1.378906 -1.203125 1.378906 -1.179688 L 1.132812 -0.511719 C 1.089844 -0.378906 1.113281 -0.289062 1.15625 -0.199219 C 1.203125 -0.109375 1.269531 -0.0429688 1.402344 -0.0234375 Z M 1.402344 -0.0234375 "/></g></g></g><g fill="#a4240e" fill-opacity="1"><g transform="translate(86.807824, 103.270837)"><g><path d="M 1.246094 -16.683594 L 1.402344 -16.660156 C 1.535156 -16.660156 1.667969 -16.707031 1.800781 -16.839844 C 1.914062 -16.949219 2.003906 -17.105469 2.089844 -17.285156 C 2.179688 -17.460938 2.222656 -17.664062 2.269531 -17.886719 C 2.3125 -18.109375 2.335938 -18.308594 2.335938 -18.53125 C 2.3125 -18.773438 2.222656 -18.976562 2.046875 -19.152344 C 1.867188 -19.332031 1.644531 -19.417969 1.402344 -19.417969 C 1.132812 -19.417969 0.890625 -19.308594 0.710938 -19.128906 C 0.535156 -18.953125 0.445312 -18.730469 0.445312 -18.464844 C 0.445312 -18.195312 0.535156 -17.972656 0.710938 -17.796875 C 0.890625 -17.617188 1.132812 -17.527344 1.402344 -17.527344 C 1.601562 -17.527344 1.78125 -17.574219 1.957031 -17.707031 C 1.867188 -17.441406 1.78125 -17.195312 1.667969 -17.015625 C 1.535156 -16.839844 1.402344 -16.726562 1.246094 -16.683594 Z M 1.246094 -16.683594 "/></g></g></g><g fill="#a4240e" fill-opacity="1"><g transform="translate(89.588083, 103.270837)"><g><path d="M 1.179688 7.585938 C 2.292969 7.585938 3.359375 7.429688 4.425781 7.074219 C 5.496094 6.71875 6.429688 6.207031 7.273438 5.539062 C 8.121094 4.871094 8.785156 4.027344 9.296875 3.003906 C 9.789062 1.980469 10.054688 0.800781 10.054688 -0.535156 C 10.054688 -1.511719 9.898438 -2.402344 9.632812 -3.226562 C 9.363281 -4.027344 9.007812 -4.761719 8.585938 -5.429688 C 8.164062 -6.09375 7.695312 -6.695312 7.207031 -7.230469 C 6.695312 -7.761719 6.207031 -8.207031 5.761719 -8.609375 C 5.316406 -9.007812 4.917969 -9.34375 4.558594 -9.632812 C 4.203125 -9.898438 3.960938 -10.144531 3.871094 -10.320312 C 3.738281 -10.523438 3.625 -10.699219 3.582031 -10.878906 C 3.535156 -11.054688 3.515625 -11.210938 3.515625 -11.34375 C 3.515625 -11.65625 3.605469 -11.878906 3.824219 -12.011719 C 4.046875 -12.144531 4.269531 -12.234375 4.492188 -12.234375 C 4.671875 -12.234375 4.828125 -12.191406 4.960938 -12.101562 C 5.09375 -12.011719 5.183594 -11.902344 5.25 -11.769531 C 5.316406 -11.632812 5.359375 -11.523438 5.382812 -11.410156 C 5.40625 -11.300781 5.429688 -11.234375 5.429688 -11.1875 L 5.316406 -10.5 C 5.292969 -10.367188 5.316406 -10.277344 5.40625 -10.1875 C 5.472656 -10.097656 5.5625 -10.054688 5.695312 -10.054688 L 5.785156 -10.078125 L 7.761719 -10.476562 C 7.851562 -10.476562 7.917969 -10.523438 7.984375 -10.609375 C 8.03125 -10.675781 8.074219 -10.765625 8.074219 -10.855469 C 8.074219 -10.898438 8.050781 -10.964844 8.007812 -11.054688 L 7.761719 -11.410156 C 7.71875 -11.5 7.675781 -11.566406 7.652344 -11.613281 L 7.609375 -11.699219 C 7.609375 -11.699219 7.609375 -11.722656 7.609375 -11.769531 C 7.40625 -12.703125 7.007812 -13.371094 6.429688 -13.8125 C 5.828125 -14.238281 5.183594 -14.460938 4.515625 -14.460938 C 4.117188 -14.460938 3.714844 -14.371094 3.316406 -14.238281 C 2.914062 -14.101562 2.582031 -13.902344 2.269531 -13.636719 C 1.957031 -13.371094 1.710938 -13.035156 1.535156 -12.65625 C 1.355469 -12.257812 1.269531 -11.835938 1.269531 -11.34375 C 1.269531 -10.609375 1.445312 -9.945312 1.800781 -9.363281 C 2.15625 -8.785156 2.734375 -8.164062 3.535156 -7.519531 C 5.050781 -6.429688 6.160156 -5.273438 6.828125 -4.070312 C 7.496094 -2.871094 7.851562 -1.691406 7.851562 -0.578125 C 7.851562 0.265625 7.675781 1.046875 7.363281 1.757812 C 7.050781 2.46875 6.605469 3.113281 6.027344 3.648438 C 5.449219 4.203125 4.78125 4.628906 4.003906 4.9375 C 3.203125 5.25 2.359375 5.40625 1.421875 5.40625 C 0.734375 5.40625 0 5.316406 -0.800781 5.09375 C -1.289062 4.984375 -1.757812 4.804688 -2.222656 4.582031 C -2.691406 4.359375 -3.113281 4.09375 -3.515625 3.78125 C -3.914062 3.46875 -4.25 3.09375 -4.515625 2.691406 C -4.78125 2.292969 -4.960938 1.824219 -5.027344 1.335938 C -5.070312 1.132812 -5.183594 1.023438 -5.382812 1.023438 C -5.472656 1.023438 -5.515625 1.046875 -5.5625 1.066406 L -7.363281 2.046875 C -7.519531 2.136719 -7.585938 2.246094 -7.585938 2.378906 C -7.585938 2.515625 -7.542969 2.601562 -7.453125 2.648438 C -7.320312 2.78125 -7.207031 2.890625 -7.117188 2.957031 C -7.03125 3.023438 -6.984375 3.070312 -6.941406 3.09375 L -6.894531 3.160156 L -6.851562 3.179688 C -6.449219 3.9375 -5.960938 4.582031 -5.382812 5.117188 C -4.804688 5.671875 -4.160156 6.140625 -3.449219 6.496094 C -2.734375 6.875 -2.003906 7.140625 -1.203125 7.320312 C -0.421875 7.496094 0.378906 7.585938 1.179688 7.585938 Z M 1.179688 7.585938 "/></g></g></g><g fill="#000000" fill-opacity="1"><g transform="translate(44.133604, 135.065481)"><g><path d="M 6.109375 -1.5 C 6.609375 -1.5 7.050781 -1.816406 7.4375 -2.453125 C 7.820312 -3.085938 8.015625 -3.898438 8.015625 -4.890625 C 8.015625 -5.878906 7.828125 -6.644531 7.453125 -7.1875 C 7.078125 -7.726562 6.628906 -8 6.109375 -8 C 5.773438 -8 5.453125 -7.890625 5.140625 -7.671875 C 4.835938 -7.453125 4.59375 -7.15625 4.40625 -6.78125 L 4.40625 -2.359375 C 4.863281 -1.785156 5.429688 -1.5 6.109375 -1.5 Z M 1.46875 2.796875 L 1.46875 -7.890625 C 1.46875 -8.535156 1.253906 -8.976562 0.828125 -9.21875 C 1.296875 -9.738281 1.867188 -10 2.546875 -10 C 3.535156 -10 4.125 -9.550781 4.3125 -8.65625 C 4.988281 -9.550781 5.894531 -10 7.03125 -10 C 8.164062 -10 9.109375 -9.550781 9.859375 -8.65625 C 10.609375 -7.769531 10.984375 -6.523438 10.984375 -4.921875 C 10.984375 -3.328125 10.53125 -2.070312 9.625 -1.15625 C 8.726562 -0.25 7.691406 0.203125 6.515625 0.203125 C 5.742188 0.203125 5.039062 -0.015625 4.40625 -0.453125 L 4.40625 2.890625 C 4.40625 3.546875 4.609375 3.984375 5.015625 4.203125 C 4.554688 4.742188 3.984375 5.015625 3.296875 5.015625 C 2.078125 5.015625 1.46875 4.273438 1.46875 2.796875 Z M 1.46875 2.796875 "/></g></g></g><g fill="#000000" fill-opacity="1"><g transform="translate(55.613035, 135.065481)"><g><path d="M 3.046875 -14.6875 C 3.535156 -14.6875 3.9375 -14.539062 4.25 -14.25 C 4.570312 -13.957031 4.734375 -13.566406 4.734375 -13.078125 C 4.734375 -12.597656 4.53125 -12.160156 4.125 -11.765625 C 3.71875 -11.367188 3.253906 -11.171875 2.734375 -11.171875 C 2.210938 -11.171875 1.789062 -11.320312 1.46875 -11.625 C 1.15625 -11.925781 1 -12.328125 1 -12.828125 C 1 -13.328125 1.21875 -13.757812 1.65625 -14.125 C 2.101562 -14.5 2.566406 -14.6875 3.046875 -14.6875 Z M 4.40625 -7.78125 L 4.40625 -1.921875 C 4.40625 -1.253906 4.609375 -0.8125 5.015625 -0.59375 C 4.546875 -0.0625 3.972656 0.203125 3.296875 0.203125 C 2.078125 0.203125 1.46875 -0.535156 1.46875 -2.015625 L 1.46875 -7.890625 C 1.46875 -8.535156 1.253906 -8.972656 0.828125 -9.203125 C 1.296875 -9.734375 1.859375 -10 2.515625 -10 C 3.171875 -10 3.648438 -9.816406 3.953125 -9.453125 C 4.253906 -9.097656 4.40625 -8.539062 4.40625 -7.78125 Z M 4.40625 -7.78125 "/></g></g></g><g fill="#000000" fill-opacity="1"><g transform="translate(61.362111, 135.065481)"><g><path d="M 8.25 -2.71875 C 8.46875 -2.457031 8.578125 -2.082031 8.578125 -1.59375 C 8.578125 -1.101562 8.40625 -0.710938 8.0625 -0.421875 C 7.71875 -0.140625 7.164062 0 6.40625 0 L 3.28125 0 C 2.46875 0 1.847656 -0.1875 1.421875 -0.5625 C 0.992188 -0.9375 0.78125 -1.414062 0.78125 -2 C 0.78125 -2.351562 0.851562 -2.660156 1 -2.921875 C 1.144531 -3.179688 1.398438 -3.472656 1.765625 -3.796875 L 6.140625 -7.6875 C 5.097656 -7.507812 4.15625 -7.421875 3.3125 -7.421875 C 2.476562 -7.421875 1.882812 -7.566406 1.53125 -7.859375 C 1.1875 -8.148438 1.015625 -8.5 1.015625 -8.90625 C 1.015625 -9.3125 1.117188 -9.648438 1.328125 -9.921875 C 1.890625 -9.835938 2.488281 -9.796875 3.125 -9.796875 L 6.203125 -9.796875 C 7.015625 -9.796875 7.628906 -9.609375 8.046875 -9.234375 C 8.472656 -8.859375 8.6875 -8.378906 8.6875 -7.796875 C 8.6875 -7.453125 8.613281 -7.148438 8.46875 -6.890625 C 8.332031 -6.628906 8.082031 -6.332031 7.71875 -6 L 3.265625 -2.0625 L 6.40625 -2.234375 C 7.207031 -2.265625 7.820312 -2.425781 8.25 -2.71875 Z M 8.25 -2.71875 "/></g></g></g><g fill="#000000" fill-opacity="1"><g transform="translate(70.725438, 135.065481)"><g><path d="M 8.25 -2.71875 C 8.46875 -2.457031 8.578125 -2.082031 8.578125 -1.59375 C 8.578125 -1.101562 8.40625 -0.710938 8.0625 -0.421875 C 7.71875 -0.140625 7.164062 0 6.40625 0 L 3.28125 0 C 2.46875 0 1.847656 -0.1875 1.421875 -0.5625 C 0.992188 -0.9375 0.78125 -1.414062 0.78125 -2 C 0.78125 -2.351562 0.851562 -2.660156 1 -2.921875 C 1.144531 -3.179688 1.398438 -3.472656 1.765625 -3.796875 L 6.140625 -7.6875 C 5.097656 -7.507812 4.15625 -7.421875 3.3125 -7.421875 C 2.476562 -7.421875 1.882812 -7.566406 1.53125 -7.859375 C 1.1875 -8.148438 1.015625 -8.5 1.015625 -8.90625 C 1.015625 -9.3125 1.117188 -9.648438 1.328125 -9.921875 C 1.890625 -9.835938 2.488281 -9.796875 3.125 -9.796875 L 6.203125 -9.796875 C 7.015625 -9.796875 7.628906 -9.609375 8.046875 -9.234375 C 8.472656 -8.859375 8.6875 -8.378906 8.6875 -7.796875 C 8.6875 -7.453125 8.613281 -7.148438 8.46875 -6.890625 C 8.332031 -6.628906 8.082031 -6.332031 7.71875 -6 L 3.265625 -2.0625 L 6.40625 -2.234375 C 7.207031 -2.265625 7.820312 -2.425781 8.25 -2.71875 Z M 8.25 -2.71875 "/></g></g></g><g fill="#000000" fill-opacity="1"><g transform="translate(80.088764, 135.065481)"><g><path d="M 3.9375 -2.5625 C 3.9375 -1.957031 4.285156 -1.65625 4.984375 -1.65625 C 5.492188 -1.65625 5.957031 -1.890625 6.375 -2.359375 L 6.375 -4.171875 C 4.75 -4.085938 3.9375 -3.550781 3.9375 -2.5625 Z M 9.3125 -6.625 L 9.3125 -2.375 C 9.3125 -1.59375 9.648438 -1.09375 10.328125 -0.875 C 10.097656 -0.5625 9.789062 -0.300781 9.40625 -0.09375 C 9.03125 0.101562 8.628906 0.203125 8.203125 0.203125 C 7.273438 0.203125 6.703125 -0.207031 6.484375 -1.03125 C 5.710938 -0.207031 4.742188 0.203125 3.578125 0.203125 C 2.710938 0.203125 2.023438 -0.00390625 1.515625 -0.421875 C 1.003906 -0.847656 0.75 -1.453125 0.75 -2.234375 C 0.75 -3.179688 1.242188 -3.9375 2.234375 -4.5 C 3.234375 -5.070312 4.613281 -5.367188 6.375 -5.390625 L 6.375 -7.171875 C 6.375 -8.015625 6.035156 -8.4375 5.359375 -8.4375 C 5.085938 -8.4375 4.859375 -8.347656 4.671875 -8.171875 C 4.492188 -8.003906 4.40625 -7.78125 4.40625 -7.5 C 4.40625 -7.21875 4.503906 -6.957031 4.703125 -6.71875 C 4.273438 -6.269531 3.738281 -6.046875 3.09375 -6.046875 C 2.457031 -6.046875 1.984375 -6.1875 1.671875 -6.46875 C 1.367188 -6.757812 1.21875 -7.140625 1.21875 -7.609375 C 1.21875 -8.304688 1.644531 -8.878906 2.5 -9.328125 C 3.351562 -9.773438 4.351562 -10 5.5 -10 C 6.644531 -10 7.566406 -9.726562 8.265625 -9.1875 C 8.960938 -8.65625 9.3125 -7.800781 9.3125 -6.625 Z M 9.3125 -6.625 "/></g></g></g><g fill="#000000" fill-opacity="1"><g transform="translate(90.74422, 135.065481)"><g><path d="M 8.859375 -7.890625 C 8.859375 -7.472656 8.738281 -7.148438 8.5 -6.921875 C 8.269531 -6.703125 7.9375 -6.59375 7.5 -6.59375 C 7.0625 -6.59375 6.640625 -6.742188 6.234375 -7.046875 C 6.398438 -7.554688 6.328125 -7.941406 6.015625 -8.203125 C 5.816406 -8.367188 5.546875 -8.453125 5.203125 -8.453125 C 4.859375 -8.453125 4.582031 -8.378906 4.375 -8.234375 C 4.164062 -8.085938 4.0625 -7.867188 4.0625 -7.578125 C 4.0625 -7.296875 4.242188 -7.023438 4.609375 -6.765625 C 4.972656 -6.515625 5.410156 -6.28125 5.921875 -6.0625 C 6.429688 -5.84375 6.941406 -5.601562 7.453125 -5.34375 C 7.972656 -5.09375 8.410156 -4.757812 8.765625 -4.34375 C 9.128906 -3.9375 9.3125 -3.46875 9.3125 -2.9375 C 9.3125 -2.019531 8.878906 -1.265625 8.015625 -0.671875 C 7.160156 -0.0859375 6.128906 0.203125 4.921875 0.203125 C 3.710938 0.203125 2.703125 -0.015625 1.890625 -0.453125 C 1.066406 -0.910156 0.65625 -1.484375 0.65625 -2.171875 C 0.65625 -2.585938 0.8125 -2.925781 1.125 -3.1875 C 1.4375 -3.457031 1.8125 -3.59375 2.25 -3.59375 C 2.9375 -3.59375 3.425781 -3.378906 3.71875 -2.953125 C 3.5 -2.785156 3.390625 -2.554688 3.390625 -2.265625 C 3.390625 -1.984375 3.523438 -1.765625 3.796875 -1.609375 C 4.078125 -1.453125 4.441406 -1.375 4.890625 -1.375 C 5.335938 -1.375 5.695312 -1.460938 5.96875 -1.640625 C 6.238281 -1.816406 6.375 -2.046875 6.375 -2.328125 C 6.375 -2.617188 6.191406 -2.890625 5.828125 -3.140625 C 5.460938 -3.390625 5.023438 -3.628906 4.515625 -3.859375 C 4.003906 -4.085938 3.492188 -4.332031 2.984375 -4.59375 C 2.472656 -4.851562 2.035156 -5.191406 1.671875 -5.609375 C 1.304688 -6.023438 1.125 -6.488281 1.125 -7 C 1.125 -7.8125 1.515625 -8.515625 2.296875 -9.109375 C 3.085938 -9.703125 4.023438 -10 5.109375 -10 C 6.191406 -10 7.085938 -9.800781 7.796875 -9.40625 C 8.503906 -9.007812 8.859375 -8.503906 8.859375 -7.890625 Z M 8.859375 -7.890625 "/></g></g></g></svg>